<?xml version="1.0" encoding="UTF-8" standalone="no"?>

<svg
   width="1080"
   height="1080"
   viewBox="0 0 285.75 285.75"
   version="1.1"
   id="svg5"
   xmlns="http://www.w3.org/2000/svg"
   xmlns:svg="http://www.w3.org/2000/svg">
  <defs
     id="defs2">
    <linearGradient
       id="linearGradient20632">
      <stop
         style="stop-color:#0077b6;stop-opacity:1;"
         offset="0"
         id="stop20630" />
    </linearGradient>
    <linearGradient
       id="linearGradient2837">
      <stop
         style="stop-color:#000000;stop-opacity:1;"
         offset="0"
         id="stop2835" />
    </linearGradient>
  </defs>
  <g
     id="layer6">
    <rect
       style="opacity:1;fill:#e16464;fill-opacity:1;fill-rule:nonzero;stroke:none;stroke-width:25.4265;stroke-miterlimit:4;stroke-dasharray:none;stroke-opacity:1"
       id="rect56791"
       width="286.43671"
       height="287.48785"
       x="0"
       y="-1.0511439"
       ry="0" />
  </g>
  <g
     id="layer2"
     style="display:inline">
    <path
       style="display:inline;mix-blend-mode:normal;fill:none;fill-opacity:1;fill-rule:nonzero;stroke:#ffffff;stroke-width:22.4393;stroke-linecap:butt;stroke-linejoin:miter;stroke-miterlimit:4;stroke-dasharray:none;stroke-opacity:1"
       d="m 73.945024,268.85086 c 1.585702,-0.0369 3.138088,-0.61683 4.426607,-1.54178 1.288519,-0.92495 2.319422,-2.18399 3.072545,-3.57992 1.506247,-2.79186 1.896607,-6.04652 1.977749,-9.21774 0.105616,-4.12771 -0.260525,-8.31366 0.625924,-12.34645 0.443224,-2.01639 1.207709,-3.98269 2.420688,-5.65331 1.21298,-1.67062 2.894538,-3.03419 4.854053,-3.68426 2.36062,-0.78313 5.027326,-0.47558 7.231121,0.67729 2.203799,1.15288 3.944879,3.10941 4.994449,5.36423 1.12644,2.41996 1.47393,5.12045 1.73404,7.77703 0.2601,2.65659 0.45333,5.35198 1.30663,7.8812 0.80298,2.38006 2.20814,4.58349 4.16462,6.15883 1.95647,1.57534 4.47913,2.48866 6.98594,2.32938 2.63896,-0.16768 5.14001,-1.51961 6.89898,-3.49401 1.75898,-1.9744 2.79991,-4.53229 3.15027,-7.15326 0.60645,-4.53675 -0.77214,-9.09149 -0.91479,-13.66637 -0.10354,-3.32051 0.49002,-6.75364 2.30048,-9.5391 0.90524,-1.39272 2.1082,-2.60228 3.54145,-3.44189 1.43324,-0.83961 3.09941,-1.30003 4.75902,-1.23065 2.6109,0.10914 5.05936,1.53046 6.76852,3.50718 1.70917,1.97673 2.73711,4.4662 3.33814,7.00932 1.04984,4.44218 0.87434,9.12003 2.09461,13.51844 0.75208,2.71084 2.07451,5.33025 4.17578,7.20079 1.05064,0.93526 2.28726,1.67071 3.63108,2.0863 1.34382,0.41559 2.79531,0.50538 4.16755,0.19631 1.36817,-0.30815 2.63629,-1.00731 3.67948,-1.94465 1.04318,-0.93734 1.86536,-2.10782 2.4639,-3.37612 1.19709,-2.53661 1.4941,-5.40927 1.4467,-8.21375 -0.0769,-4.54769 -1.01038,-9.06073 -0.89949,-13.60772 0.0702,-2.87886 0.58833,-5.81871 2.07099,-8.28741 0.74134,-1.23434 1.72033,-2.33476 2.90653,-3.15092 1.1862,-0.81617 2.58293,-1.34136 4.01996,-1.43155 1.28661,-0.0807 2.58613,0.18732 3.76247,0.71467 1.17635,0.52735 2.23111,1.30946 3.12375,2.23956 1.7853,1.86018 2.90104,4.27077 3.64981,6.73794 1.54775,5.09979 1.6438,10.54238 3.0694,15.67765 0.68042,2.45101 1.69451,4.87016 3.41371,6.74494 0.85961,0.93738 1.89037,1.72658 3.05018,2.24855 1.15981,0.52198 2.45066,0.77099 3.71663,0.64876 2.18477,-0.21094 4.1714,-1.52788 5.49168,-3.28133 1.32027,-1.75346 2.02521,-3.90823 2.34342,-6.07998 0.6458,-4.40758 -0.21885,-8.87447 -0.74452,-13.29799 -0.43481,-3.65896 -0.62334,-7.46049 0.58612,-10.94104 0.60474,-1.74028 1.56302,-3.37394 2.89164,-4.65028 1.32861,-1.27633 3.03865,-2.18123 4.86517,-2.42224 2.26783,-0.29924 4.60732,0.44547 6.44721,1.80467 1.83988,1.3592 3.20389,3.29492 4.11453,5.39334 1.82127,4.19683 1.87484,8.9086 2.26902,13.46656 0.29136,3.36897 0.81306,6.8094 2.46654,9.75912 0.82674,1.47486 1.93545,2.80601 3.31289,3.7865 1.37744,0.9805 3.0308,1.59888 4.72106,1.64067 2.25295,0.0557 4.46879,-0.92633 6.11013,-2.47063 1.64134,-1.5443 2.7334,-3.61478 3.32039,-5.79063 1.174,-4.35169 0.39457,-8.95961 -0.32005,-13.40987 -6.7109,-41.79164 -7.19334,-84.73795 -18.78321,-125.44731 -5.42779,-19.065078 -13.52909,-37.860641 -27.16902,-52.244323 -9.1041,-9.60052 -20.53552,-16.995352 -33.05876,-21.264201 -12.52324,-4.26885 -26.11775,-5.393962 -39.155,-3.139009 -13.12424,2.27 -25.59317,7.93383 -36.218315,15.96532 C 83.990279,48.417206 75.195933,58.78123 68.597744,70.351124 58.743491,87.630511 53.825923,107.40377 52.131165,127.22324 c -3.5844,41.91801 6.749622,83.61007 11.146571,125.45065 0.373162,3.55094 0.729712,7.19971 2.330879,10.39106 0.800583,1.59567 1.915135,3.05349 3.349897,4.11582 1.434762,1.06234 3.201748,1.7116 4.986512,1.67009 z"
       id="path1333-6" />
  </g>
  <g
     id="layer1"
     style="display:inline">
    <path
       style="opacity:1;mix-blend-mode:normal;fill:#00b4d8;fill-opacity:1;fill-rule:nonzero;stroke:none;stroke-width:0.431808;stroke-linecap:butt;stroke-linejoin:miter;stroke-miterlimit:4;stroke-dasharray:none;stroke-opacity:1"
       d="m 73.945024,268.85086 c 1.585702,-0.0369 3.138088,-0.61684 4.426606,-1.54178 1.288519,-0.92495 2.319421,-2.18399 3.072544,-3.57992 1.506245,-2.79186 1.896605,-6.04652 1.977747,-9.21774 0.105616,-4.12771 -0.260523,-8.31366 0.625926,-12.34645 0.443225,-2.01639 1.20771,-3.98269 2.420691,-5.65331 1.21298,-1.67062 2.894538,-3.03419 4.854053,-3.68426 2.36062,-0.78313 5.027326,-0.47558 7.231121,0.67729 2.203798,1.15288 3.944878,3.10941 4.994448,5.36423 1.12644,2.41996 1.47393,5.12045 1.73403,7.77703 0.2601,2.65659 0.45333,5.35198 1.30663,7.8812 0.80298,2.38007 2.20815,4.58349 4.16462,6.15883 1.95647,1.57534 4.47914,2.48866 6.98595,2.32938 2.63896,-0.16768 5.14001,-1.51962 6.89898,-3.49402 1.75898,-1.9744 2.79991,-4.53229 3.15027,-7.15326 0.60645,-4.53675 -0.77214,-9.09149 -0.91479,-13.66637 -0.10354,-3.32051 0.49002,-6.75364 2.30048,-9.5391 0.90524,-1.39272 2.1082,-2.60228 3.54145,-3.44189 1.43325,-0.83961 3.09941,-1.30003 4.75902,-1.23065 2.6109,0.10914 5.05936,1.53046 6.76852,3.50718 1.70917,1.97673 2.73711,4.4662 3.33814,7.00932 1.04984,4.44218 0.87433,9.12003 2.0946,13.51844 0.75208,2.71084 2.0745,5.33026 4.17578,7.2008 1.05064,0.93526 2.28727,1.67071 3.63109,2.0863 1.34382,0.41559 2.79531,0.50538 4.16755,0.19631 1.36817,-0.30815 2.63629,-1.00731 3.67948,-1.94465 1.04318,-0.93734 1.86536,-2.10782 2.4639,-3.37612 1.19708,-2.53661 1.4941,-5.40927 1.4467,-8.21375 -0.0769,-4.54769 -1.01038,-9.06073 -0.89949,-13.60772 0.0702,-2.87886 0.58833,-5.81871 2.07099,-8.28741 0.74134,-1.23434 1.72033,-2.33476 2.90653,-3.15092 1.1862,-0.81617 2.58293,-1.34136 4.01996,-1.43155 1.28661,-0.0807 2.58613,0.18732 3.76247,0.71467 1.17635,0.52735 2.23111,1.30946 3.12375,2.23956 1.7853,1.86018 2.90104,4.27077 3.64981,6.73794 1.54775,5.09979 1.6438,10.54238 3.0694,15.67765 0.68042,2.45101 1.69451,4.87016 3.41371,6.74494 0.85961,0.93738 1.89037,1.72658 3.05018,2.24855 1.15981,0.52198 2.45066,0.77099 3.71663,0.64876 2.18477,-0.21094 4.1714,-1.52788 5.49168,-3.28133 1.32027,-1.75346 2.02521,-3.90823 2.34342,-6.07998 0.6458,-4.40758 -0.21885,-8.87447 -0.74452,-13.29799 -0.43481,-3.65896 -0.62334,-7.46049 0.58612,-10.94104 0.60474,-1.74028 1.56302,-3.37394 2.89164,-4.65028 1.32861,-1.27633 3.03865,-2.18123 4.86517,-2.42224 2.26783,-0.29924 4.60732,0.44547 6.44721,1.80467 1.83988,1.3592 3.20389,3.29492 4.11453,5.39334 1.82127,4.19683 1.87484,8.9086 2.26902,13.46656 0.29136,3.36897 0.81306,6.8094 2.46654,9.75912 0.82674,1.47486 1.93545,2.80601 3.31289,3.7865 1.37744,0.9805 3.0308,1.59888 4.72106,1.64067 2.25295,0.0557 4.46879,-0.92633 6.11013,-2.47063 1.64134,-1.5443 2.7334,-3.61478 3.32039,-5.79063 1.174,-4.35169 0.39457,-8.95961 -0.32005,-13.40987 C 242.28883,184.7236 241.8064,141.77728 230.21652,101.06792 224.78873,82.002844 216.68743,63.207282 203.0475,48.823601 193.9434,39.223081 182.51198,31.828249 169.98874,27.5594 c -12.52324,-4.26885 -26.11775,-5.393962 -39.155,-3.139009 -13.12424,2.27 -25.59317,7.933831 -36.218315,15.96532 -10.625146,8.03149 -19.419492,18.395514 -26.017682,29.965408 -9.854253,17.279385 -14.771824,37.052641 -16.466582,56.872111 -3.5844,41.91801 6.749638,83.61007 11.146578,125.45066 0.373161,3.55094 0.729711,7.19971 2.330877,10.39106 0.800583,1.59567 1.915134,3.05349 3.349896,4.11582 1.434762,1.06234 3.201748,1.7116 4.986512,1.67009 z"
       id="path1333" />
    <path
       style="display:inline;mix-blend-mode:normal;fill:none;fill-opacity:1;fill-rule:nonzero;stroke:#041944;stroke-width:3.50249;stroke-linecap:butt;stroke-linejoin:miter;stroke-miterlimit:4;stroke-dasharray:none;stroke-opacity:1"
       d="m 73.945024,268.85086 c 1.585702,-0.0369 3.138088,-0.61683 4.426607,-1.54178 1.288519,-0.92495 2.319422,-2.18399 3.072545,-3.57992 1.506247,-2.79186 1.896607,-6.04652 1.977749,-9.21774 0.105616,-4.12771 -0.260525,-8.31366 0.625924,-12.34645 0.443224,-2.01639 1.207709,-3.98269 2.420688,-5.65331 1.21298,-1.67062 2.894538,-3.03419 4.854053,-3.68426 2.36062,-0.78313 5.027326,-0.47558 7.231121,0.67729 2.203799,1.15288 3.944879,3.10941 4.994449,5.36423 1.12644,2.41996 1.47393,5.12045 1.73404,7.77703 0.2601,2.65659 0.45333,5.35198 1.30663,7.8812 0.80298,2.38006 2.20814,4.58349 4.16461,6.15883 1.95648,1.57534 4.47914,2.48866 6.98595,2.32938 2.63896,-0.16768 5.14001,-1.51961 6.89899,-3.49402 1.75897,-1.9744 2.7999,-4.53229 3.15026,-7.15326 0.60645,-4.53675 -0.77214,-9.09149 -0.91479,-13.66637 -0.10354,-3.32051 0.49002,-6.75364 2.30048,-9.5391 0.90524,-1.39272 2.1082,-2.60228 3.54145,-3.44189 1.43325,-0.83961 3.09941,-1.30003 4.75902,-1.23065 2.6109,0.10914 5.05936,1.53046 6.76852,3.50718 1.70917,1.97673 2.73711,4.4662 3.33814,7.00932 1.04984,4.44218 0.87433,9.12003 2.0946,13.51844 0.75208,2.71084 2.0745,5.33026 4.17578,7.2008 1.05064,0.93526 2.28727,1.67071 3.63109,2.0863 1.34382,0.41559 2.79531,0.50538 4.16755,0.19631 1.36817,-0.30815 2.63629,-1.00731 3.67948,-1.94465 1.04318,-0.93734 1.86536,-2.10782 2.4639,-3.37612 1.19708,-2.53661 1.4941,-5.40927 1.4467,-8.21375 -0.0769,-4.54769 -1.01038,-9.06073 -0.89949,-13.60772 0.0702,-2.87886 0.58833,-5.81871 2.07099,-8.28741 0.74134,-1.23434 1.72033,-2.33476 2.90653,-3.15092 1.1862,-0.81617 2.58293,-1.34136 4.01996,-1.43155 1.28661,-0.0807 2.58613,0.18732 3.76247,0.71467 1.17635,0.52735 2.23111,1.30946 3.12375,2.23956 1.7853,1.86018 2.90104,4.27077 3.64981,6.73794 1.54775,5.09979 1.6438,10.54238 3.0694,15.67765 0.68042,2.45101 1.69451,4.87016 3.41371,6.74494 0.85961,0.93738 1.89037,1.72658 3.05018,2.24855 1.15981,0.52198 2.45066,0.77099 3.71663,0.64876 2.18477,-0.21094 4.1714,-1.52788 5.49168,-3.28133 1.32027,-1.75346 2.02521,-3.90823 2.34342,-6.07998 0.6458,-4.40758 -0.21885,-8.87447 -0.74452,-13.29799 -0.43481,-3.65896 -0.62334,-7.46049 0.58612,-10.94104 0.60474,-1.74028 1.56302,-3.37394 2.89164,-4.65028 1.32861,-1.27633 3.03865,-2.18123 4.86517,-2.42224 2.26783,-0.29924 4.60732,0.44547 6.44721,1.80467 1.83988,1.3592 3.20389,3.29492 4.11453,5.39334 1.82127,4.19683 1.87484,8.9086 2.26902,13.46656 0.29136,3.36897 0.81306,6.8094 2.46654,9.75912 0.82674,1.47486 1.93545,2.80601 3.31289,3.7865 1.37744,0.9805 3.0308,1.59888 4.72106,1.64067 2.25295,0.0557 4.46879,-0.92633 6.11013,-2.47063 1.64134,-1.5443 2.7334,-3.61478 3.32039,-5.79063 1.174,-4.35169 0.39457,-8.95961 -0.32005,-13.40987 C 242.28883,184.7236 241.8064,141.77728 230.21652,101.06792 224.78873,82.002843 216.68743,63.207282 203.0475,48.8236 193.9434,39.22308 182.51198,31.828248 169.98874,27.559399 157.4655,23.29055 143.87099,22.165437 130.83374,24.42039 117.7095,26.69039 105.24057,32.35422 94.615424,40.38571 83.990278,48.4172 75.195932,58.781224 68.597743,70.351118 58.74349,87.630503 53.825922,107.40376 52.131163,127.22323 c -3.584402,41.91801 6.749623,83.61007 11.146573,125.45066 0.373162,3.55094 0.729712,7.19971 2.330879,10.39106 0.800583,1.59567 1.915135,3.05349 3.349897,4.11582 1.434762,1.06234 3.201748,1.7116 4.986512,1.67009 z"
       id="path1333-5" />
  </g>
  <g
     id="layer3">
    <ellipse
       style="opacity:1;fill:#000000;fill-opacity:1;fill-rule:nonzero;stroke:none;stroke-width:0.116901;stroke-miterlimit:4;stroke-dasharray:none;stroke-opacity:1"
       id="path20739"
       cx="97.705048"
       cy="99.722015"
       rx="12.898268"
       ry="19.027605"
       transform="rotate(-7.1473307)" />
    <ellipse
       style="fill:#000000;fill-opacity:1;fill-rule:nonzero;stroke:none;stroke-width:0.116901;stroke-miterlimit:4;stroke-dasharray:none;stroke-opacity:1"
       id="path20739-8"
       cx="159.44287"
       cy="98.288246"
       rx="12.898268"
       ry="19.027605"
       transform="rotate(-7.1473307)" />
    <ellipse
       style="fill:#ffffff;fill-opacity:0.903846;fill-rule:nonzero;stroke:none;stroke-width:0.461853;stroke-miterlimit:4;stroke-dasharray:none;stroke-opacity:1"
       id="path24542"
       cx="102.17416"
       cy="109.80913"
       rx="3.0382719"
       ry="3.2606328"
       transform="rotate(-7.1473307)" />
    <ellipse
       style="fill:#ffffff;fill-opacity:0.903846;fill-rule:nonzero;stroke:none;stroke-width:1.16363;stroke-miterlimit:4;stroke-dasharray:none;stroke-opacity:1"
       id="path24542-1"
       cx="95.699638"
       cy="96.554314"
       rx="6.5633564"
       ry="9.5812998"
       transform="rotate(-7.1473307)" />
    <ellipse
       style="fill:#ffffff;fill-opacity:0.903846;fill-rule:nonzero;stroke:none;stroke-width:0.461853;stroke-miterlimit:4;stroke-dasharray:none;stroke-opacity:1"
       id="path24542-8"
       cx="162.00481"
       cy="110.14346"
       rx="3.0382719"
       ry="3.2606328"
       transform="rotate(-7.1473307)" />
    <ellipse
       style="fill:#ffffff;fill-opacity:0.903846;fill-rule:nonzero;stroke:none;stroke-width:1.16363;stroke-miterlimit:4;stroke-dasharray:none;stroke-opacity:1"
       id="path24542-1-7"
       cx="157.10701"
       cy="95.049141"
       rx="6.5633564"
       ry="9.5812998"
       transform="rotate(-7.1473307)" />
  </g>
  <g
     id="layer4"
     style="display:inline">
    <path
       style="fill:#151514;fill-opacity:1;stroke:none;stroke-width:0.496862px;stroke-linecap:butt;stroke-linejoin:miter;stroke-opacity:1"
       d="m 142.2628,126.73929 c 14.40576,-4.66539 12.31006,-10.66674 21.62175,-10.26992 9.31171,0.39681 9.43888,8.82221 6.78429,15.22658 -2.65458,6.40435 -12.24686,13.33469 -19.6583,17.03148 -7.41142,3.69677 -22.77115,8.10433 -28.73944,1.623 -12.6589,-15.94135 7.67852,-19.28696 19.9917,-23.61114 z"
       id="path29356" />
    <path
       style="fill:#ff4b4b;fill-opacity:1;stroke:none;stroke-width:0.333903px;stroke-linecap:butt;stroke-linejoin:miter;stroke-opacity:1"
       d="m 150.52312,133.2978 c 8.6879,-4.12041 15.92608,-0.22143 18.08453,1.88488 -2.04237,3.17518 -10.45074,10.40982 -17.47413,13.48381 -6.52169,3.32913 -14.28354,4.94754 -17.85608,4.9089 1.102,-11.95766 10.71704,-16.92743 17.24568,-20.27759 z"
       id="path29356-4" />
  </g>
  <g
     id="layer5">
    <ellipse
       style="fill:#ff7ff5;fill-opacity:1;fill-rule:nonzero;stroke:none;stroke-width:1.094;stroke-miterlimit:4;stroke-dasharray:none;stroke-opacity:1"
       id="path24542-1-2"
       cx="62.585888"
       cy="153.31981"
       rx="12.540731"
       ry="4.4323554"
       transform="rotate(-16.508005)" />
    <ellipse
       style="fill:#ff7ff5;fill-opacity:1;fill-rule:nonzero;stroke:none;stroke-width:1.094;stroke-miterlimit:4;stroke-dasharray:none;stroke-opacity:1"
       id="path24542-1-2-7"
       cx="146.64665"
       cy="155.66508"
       rx="12.540731"
       ry="4.4323554"
       transform="rotate(-17.223274)" />
  </g>
</svg>
